<svg width="39" height="43" viewBox="0 0 39 43" fill="none" xmlns="http://www.w3.org/2000/svg">
<path fill-rule="evenodd" clip-rule="evenodd" d="M14.84 0.875H24.16C27.336 0.874983 29.8216 0.87497 31.7603 1.13562C33.7434 1.40224 35.3032 1.95795 36.5268 3.18153C37.7504 4.40512 38.3061 5.96496 38.5727 7.94801C38.8334 9.88671 38.8334 12.3724 38.8334 15.5483V31.3631C38.8334 34.3603 38.8334 36.7245 38.581 38.4516C38.3277 40.185 37.7718 41.6372 36.3357 42.3352C34.8995 43.0332 33.4142 42.5731 31.8947 41.7014C30.3807 40.8328 28.5217 39.3721 26.165 37.5204L24.5456 36.248C23.167 35.1648 22.2016 34.4085 21.3869 33.9128C20.5952 33.4312 20.0414 33.2574 19.5 33.2574C18.9587 33.2574 18.4049 33.4312 17.6132 33.9128C16.7984 34.4085 15.8331 35.1648 14.4545 36.248L12.8351 37.5204C10.4784 39.3721 8.61934 40.8328 7.10534 41.7014C5.58584 42.5731 4.10051 43.0332 2.66439 42.3352C1.22827 41.6372 0.672387 40.185 0.419055 38.4516C0.166641 36.7245 0.166662 34.3603 0.166688 31.3631L0.166688 15.5483C0.166671 12.3724 0.166658 9.88672 0.42731 7.94801C0.693924 5.96496 1.24963 4.40512 2.47322 3.18153C3.69681 1.95795 5.25665 1.40224 7.2397 1.13562C9.1784 0.87497 11.6641 0.874983 14.84 0.875ZM7.50619 3.11779C5.74492 3.35458 4.67749 3.8057 3.88744 4.59575C3.09738 5.3858 2.64627 6.45323 2.40948 8.2145C2.16881 10.0045 2.16669 12.3558 2.16669 15.625V31.2716C2.16669 34.3802 2.1693 36.5973 2.39803 38.1624C2.62841 39.7387 3.03994 40.294 3.53867 40.5364C4.03739 40.7788 4.72829 40.7593 6.11011 39.9666C7.48206 39.1795 9.22703 37.8118 11.6714 35.8912L13.2689 34.6361C14.5858 33.6013 15.6445 32.7694 16.5737 32.2042C17.5377 31.6177 18.4562 31.2574 19.5 31.2574C20.5439 31.2574 21.4624 31.6177 22.4264 32.2042C23.3555 32.7694 24.4143 33.6013 25.7311 34.636L27.3287 35.8912C29.773 37.8118 31.518 39.1795 32.8899 39.9666C34.2718 40.7593 34.9627 40.7788 35.4614 40.5364C35.9601 40.294 36.3716 39.7387 36.602 38.1624C36.8307 36.5973 36.8334 34.3802 36.8334 31.2716V15.625C36.8334 12.3558 36.8312 10.0045 36.5906 8.2145C36.3538 6.45323 35.9027 5.3858 35.1126 4.59575C34.3226 3.8057 33.2551 3.35458 31.4939 3.11779C29.7038 2.87712 27.3525 2.875 24.0834 2.875H14.9167C11.6475 2.875 9.29623 2.87712 7.50619 3.11779Z" fill="#222222"/>
</svg>
