<svg width="39" height="39" viewBox="0 0 39 39" fill="none" xmlns="http://www.w3.org/2000/svg">
<path fill-rule="evenodd" clip-rule="evenodd" d="M3.11223 0.166664C3.13035 0.166667 3.14849 0.166671 3.16664 0.166671H12.9166C12.9348 0.166671 12.9529 0.166667 12.971 0.166664C13.3951 0.16658 13.8072 0.166499 14.1472 0.2122C14.5304 0.26372 14.9676 0.389242 15.3309 0.752457C15.6941 1.11567 15.8196 1.55295 15.8711 1.93615C15.9168 2.27607 15.9167 2.68819 15.9166 3.11226C15.9166 3.13038 15.9166 3.14852 15.9166 3.16667V15.2083C15.9166 15.2265 15.9166 15.2446 15.9166 15.2627C15.9167 15.6868 15.9168 16.0989 15.8711 16.4389C15.8196 16.8221 15.6941 17.2593 15.3309 17.6225C14.9676 17.9858 14.5304 18.1113 14.1472 18.1628C13.8072 18.2085 13.3951 18.2084 12.971 18.2083C12.9529 18.2083 12.9348 18.2083 12.9166 18.2083H3.16664C3.14849 18.2083 3.13036 18.2083 3.11225 18.2083C2.68817 18.2084 2.27604 18.2085 1.93612 18.1628C1.55292 18.1113 1.11564 17.9858 0.752427 17.6225C0.389211 17.2593 0.263689 16.8221 0.212169 16.4389C0.166469 16.0989 0.16655 15.6868 0.166633 15.2627C0.166637 15.2446 0.16664 15.2265 0.16664 15.2083V3.16667C0.16664 3.14852 0.166637 3.13038 0.166633 3.11226C0.16655 2.68819 0.166469 2.27607 0.212169 1.93615C0.263689 1.55295 0.389211 1.11567 0.752427 0.752457C1.11564 0.389242 1.55292 0.26372 1.93612 0.2122C2.27604 0.166499 2.68816 0.16658 3.11223 0.166664ZM2.19533 2.19536C2.195 2.19774 2.19467 2.20017 2.19433 2.20265C2.16876 2.39284 2.16664 2.667 2.16664 3.16667V15.2083C2.16664 15.708 2.16876 15.9822 2.19433 16.1724C2.19467 16.1748 2.195 16.1773 2.19533 16.1796C2.19771 16.18 2.20014 16.1803 2.20262 16.1806C2.39281 16.2062 2.66697 16.2083 3.16664 16.2083H12.9166C13.4163 16.2083 13.6905 16.2062 13.8807 16.1806C13.8831 16.1803 13.8856 16.18 13.8879 16.1796C13.8883 16.1773 13.8886 16.1748 13.8889 16.1724C13.9145 15.9822 13.9166 15.708 13.9166 15.2083V3.16667C13.9166 2.667 13.9145 2.39284 13.8889 2.20265C13.8886 2.20017 13.8883 2.19774 13.8879 2.19536C13.8856 2.19503 13.8831 2.1947 13.8807 2.19437C13.6905 2.16879 13.4163 2.16667 12.9166 2.16667H3.16664C2.66697 2.16667 2.39281 2.16879 2.20262 2.19437C2.20014 2.1947 2.19771 2.19503 2.19533 2.19536Z" fill="#222222"/>
<path fill-rule="evenodd" clip-rule="evenodd" d="M3.11223 25.375C3.13035 25.375 3.14849 25.375 3.16664 25.375H12.9166C12.9348 25.375 12.9529 25.375 12.971 25.375C13.3951 25.3749 13.8072 25.3748 14.1472 25.4205C14.5304 25.4721 14.9676 25.5976 15.3309 25.9608C15.6941 26.324 15.8196 26.7613 15.8711 27.1445C15.9168 27.4844 15.9167 27.8965 15.9166 28.3206C15.9166 28.3387 15.9166 28.3569 15.9166 28.375V35.8333C15.9166 35.8515 15.9166 35.8696 15.9166 35.8878C15.9167 36.3118 15.9168 36.724 15.8711 37.0639C15.8196 37.4471 15.6941 37.8843 15.3309 38.2476C14.9676 38.6108 14.5304 38.7363 14.1472 38.7878C13.8072 38.8335 13.3951 38.8334 12.9711 38.8334C12.9529 38.8334 12.9348 38.8333 12.9166 38.8333H3.16664C3.14848 38.8333 3.13035 38.8334 3.11223 38.8334C2.68816 38.8334 2.27603 38.8335 1.93612 38.7878C1.55292 38.7363 1.11564 38.6108 0.752427 38.2476C0.389211 37.8843 0.263689 37.4471 0.212169 37.0639C0.166469 36.724 0.16655 36.3118 0.166633 35.8878C0.166637 35.8696 0.16664 35.8515 0.16664 35.8333V28.375C0.16664 28.3569 0.166637 28.3387 0.166633 28.3206C0.16655 27.8965 0.166469 27.4844 0.212169 27.1445C0.263689 26.7613 0.389211 26.324 0.752427 25.9608C1.11564 25.5976 1.55292 25.4721 1.93612 25.4205C2.27604 25.3748 2.68816 25.3749 3.11223 25.375ZM2.19533 27.4037C2.195 27.4061 2.19467 27.4085 2.19433 27.411C2.16876 27.6012 2.16664 27.8753 2.16664 28.375V35.8333C2.16664 36.333 2.16876 36.6072 2.19433 36.7974C2.19467 36.7998 2.195 36.8023 2.19533 36.8047C2.19771 36.805 2.20014 36.8053 2.20262 36.8057C2.39281 36.8312 2.66697 36.8333 3.16664 36.8333H12.9166C13.4163 36.8333 13.6905 36.8312 13.8807 36.8057C13.8831 36.8053 13.8856 36.805 13.8879 36.8047C13.8883 36.8023 13.8886 36.7998 13.8889 36.7974C13.9145 36.6072 13.9166 36.333 13.9166 35.8333V28.375C13.9166 27.8753 13.9145 27.6012 13.8889 27.411C13.8886 27.4085 13.8883 27.4061 13.8879 27.4037C13.8856 27.4034 13.8831 27.403 13.8807 27.4027C13.6905 27.3771 13.4163 27.375 12.9166 27.375H3.16664C2.66697 27.375 2.39281 27.3771 2.20262 27.4027C2.20014 27.403 2.19771 27.4034 2.19533 27.4037Z" fill="#222222"/>
<path fill-rule="evenodd" clip-rule="evenodd" d="M26.0289 0.166664C26.047 0.166667 26.0652 0.166671 26.0833 0.166671H35.8333C35.8515 0.166671 35.8696 0.166667 35.8877 0.166664C36.3118 0.16658 36.7239 0.166499 37.0638 0.2122C37.447 0.26372 37.8843 0.389242 38.2475 0.752457C38.6108 1.11567 38.7363 1.55295 38.7878 1.93615C38.8335 2.27607 38.8334 2.68819 38.8333 3.11226C38.8333 3.13038 38.8333 3.14851 38.8333 3.16667V10.625C38.8333 10.6432 38.8333 10.6613 38.8333 10.6794C38.8334 11.1035 38.8335 11.5156 38.7878 11.8555C38.7363 12.2387 38.6108 12.676 38.2475 13.0392C37.8843 13.4024 37.447 13.528 37.0638 13.5795C36.7239 13.6252 36.3118 13.6251 35.8877 13.625C35.8696 13.625 35.8515 13.625 35.8333 13.625H26.0833C26.0652 13.625 26.047 13.625 26.0289 13.625C25.6048 13.6251 25.1927 13.6252 24.8528 13.5795C24.4696 13.528 24.0323 13.4024 23.6691 13.0392C23.3059 12.676 23.1804 12.2387 23.1289 11.8555C23.0832 11.5156 23.0832 11.1035 23.0833 10.6794C23.0833 10.6613 23.0833 10.6432 23.0833 10.625V3.16667C23.0833 3.14851 23.0833 3.13038 23.0833 3.11226C23.0832 2.68819 23.0832 2.27607 23.1289 1.93615C23.1804 1.55295 23.3059 1.11567 23.6691 0.752457C24.0323 0.389242 24.4696 0.26372 24.8528 0.2122C25.1927 0.166499 25.6048 0.16658 26.0289 0.166664ZM25.112 2.19536C25.1117 2.19774 25.1114 2.20017 25.111 2.20265C25.0855 2.39284 25.0833 2.667 25.0833 3.16667V10.625C25.0833 11.1247 25.0855 11.3988 25.111 11.589C25.1114 11.5915 25.1117 11.5939 25.112 11.5963C25.1144 11.5966 25.1168 11.597 25.1193 11.5973C25.3095 11.6229 25.5837 11.625 26.0833 11.625H35.8333C36.333 11.625 36.6072 11.6229 36.7974 11.5973C36.7998 11.597 36.8023 11.5966 36.8046 11.5963C36.805 11.5939 36.8053 11.5915 36.8056 11.589C36.8312 11.3988 36.8333 11.1247 36.8333 10.625V3.16667C36.8333 2.667 36.8312 2.39284 36.8056 2.20265C36.8053 2.20017 36.805 2.19774 36.8046 2.19536C36.8023 2.19503 36.7998 2.1947 36.7974 2.19437C36.6072 2.16879 36.333 2.16667 35.8333 2.16667H26.0833C25.5837 2.16667 25.3095 2.16879 25.1193 2.19437C25.1168 2.1947 25.1144 2.19503 25.112 2.19536Z" fill="#222222"/>
<path fill-rule="evenodd" clip-rule="evenodd" d="M26.0289 20.7917C26.047 20.7917 26.0652 20.7917 26.0833 20.7917H35.8333C35.8515 20.7917 35.8696 20.7917 35.8877 20.7917C36.3118 20.7916 36.7239 20.7915 37.0638 20.8372C37.447 20.8887 37.8843 21.0142 38.2475 21.3775C38.6108 21.7407 38.7363 22.1779 38.7878 22.5612C38.8335 22.9011 38.8334 23.3132 38.8333 23.7373C38.8333 23.7554 38.8333 23.7735 38.8333 23.7917V35.8333C38.8333 35.8515 38.8333 35.8696 38.8333 35.8877C38.8334 36.3118 38.8335 36.7239 38.7878 37.0639C38.7363 37.4471 38.6108 37.8843 38.2475 38.2475C37.8843 38.6108 37.447 38.7363 37.0638 38.7878C36.7239 38.8335 36.3118 38.8334 35.8877 38.8333C35.8696 38.8333 35.8515 38.8333 35.8333 38.8333H26.0833C26.0652 38.8333 26.047 38.8333 26.0289 38.8333C25.6049 38.8334 25.1927 38.8335 24.8528 38.7878C24.4696 38.7363 24.0323 38.6108 23.6691 38.2475C23.3059 37.8843 23.1804 37.4471 23.1289 37.0639C23.0832 36.7239 23.0832 36.3118 23.0833 35.8877C23.0833 35.8696 23.0833 35.8515 23.0833 35.8333V23.7917C23.0833 23.7735 23.0833 23.7554 23.0833 23.7373C23.0832 23.3132 23.0832 22.9011 23.1289 22.5612C23.1804 22.1779 23.3059 21.7407 23.6691 21.3775C24.0323 21.0142 24.4696 20.8887 24.8528 20.8372C25.1927 20.7915 25.6048 20.7916 26.0289 20.7917ZM25.112 22.8204C25.1117 22.8227 25.1114 22.8252 25.111 22.8276C25.0855 23.0178 25.0833 23.292 25.0833 23.7917V35.8333C25.0833 36.333 25.0855 36.6072 25.111 36.7974C25.1114 36.7998 25.1117 36.8023 25.112 36.8046C25.1144 36.805 25.1168 36.8053 25.1193 36.8056C25.3095 36.8312 25.5837 36.8333 26.0833 36.8333H35.8333C36.333 36.8333 36.6072 36.8312 36.7974 36.8056C36.7998 36.8053 36.8023 36.805 36.8046 36.8046C36.805 36.8023 36.8053 36.7998 36.8056 36.7974C36.8312 36.6072 36.8333 36.333 36.8333 35.8333V23.7917C36.8333 23.292 36.8312 23.0178 36.8056 22.8276C36.8053 22.8252 36.805 22.8227 36.8046 22.8204C36.8023 22.82 36.7998 22.8197 36.7974 22.8194C36.6072 22.7938 36.333 22.7917 35.8333 22.7917H26.0833C25.5837 22.7917 25.3095 22.7938 25.1193 22.8194C25.1168 22.8197 25.1144 22.82 25.112 22.8204Z" fill="#222222"/>
</svg>
