<svg width="39" height="41" viewBox="0 0 39 41" fill="none" xmlns="http://www.w3.org/2000/svg">
<path fill-rule="evenodd" clip-rule="evenodd" d="M17.1509 0.166687H21.8491C25.0191 0.16668 27.4748 0.166674 29.4237 0.364929C31.401 0.56608 32.9673 0.979561 34.315 1.88008C35.4251 2.62182 36.3782 3.57496 37.12 4.68506C38.0205 6.03278 38.434 7.59903 38.6351 9.57638C38.8334 11.5253 38.8334 13.981 38.8334 17.1509V17.2658C38.8334 20.4358 38.8334 22.8914 38.6351 24.8403C38.434 26.8177 38.0205 28.3839 37.12 29.7317C36.3782 30.8418 35.4251 31.7949 34.315 32.5366C33.1378 33.3232 31.7944 33.738 30.1552 33.9646C28.6696 34.17 26.8879 34.2269 24.7048 34.2433L22.4442 38.7644C21.2311 41.1906 17.7689 41.1906 16.5559 38.7644L14.2953 34.2433C12.1121 34.2269 10.3304 34.17 8.84486 33.9646C7.20565 33.738 5.86225 33.3232 4.68506 32.5366C3.57496 31.7949 2.62182 30.8418 1.88008 29.7317C0.979561 28.3839 0.56608 26.8177 0.364929 24.8403C0.166674 22.8914 0.16668 20.4357 0.166687 17.2658V17.1509C0.16668 13.981 0.166674 11.5253 0.364929 9.57638C0.56608 7.59903 0.979561 6.03278 1.88008 4.68506C2.62182 3.57496 3.57496 2.62182 4.68506 1.88008C6.03278 0.979561 7.59903 0.56608 9.57638 0.364929C11.5253 0.166674 13.981 0.16668 17.1509 0.166687ZM9.77879 2.35466C7.95958 2.53972 6.76052 2.89868 5.7962 3.54302C4.90448 4.13885 4.13885 4.90448 3.54302 5.7962C2.89868 6.76052 2.53972 7.95958 2.35466 9.77879C2.1679 11.6147 2.16669 13.969 2.16669 17.2084C2.16669 20.4477 2.1679 22.802 2.35466 24.6379C2.53972 26.4571 2.89868 27.6562 3.54302 28.6205C4.13885 29.5122 4.90448 30.2779 5.7962 30.8737C6.63876 31.4367 7.66103 31.7819 9.11872 31.9834C10.5925 32.1872 12.4439 32.2361 14.921 32.2469C15.3313 32.2487 15.6829 32.4973 15.8355 32.8516L18.3447 37.87C18.8207 38.822 20.1793 38.822 20.6553 37.87L23.1645 32.8516C23.3172 32.4973 23.6688 32.2487 24.079 32.2469C26.5561 32.2361 28.4076 32.1872 29.8813 31.9834C31.339 31.7819 32.3613 31.4367 33.2038 30.8737C34.0956 30.2779 34.8612 29.5122 35.457 28.6205C36.1014 27.6562 36.4603 26.4571 36.6454 24.6379C36.8321 22.802 36.8334 20.4477 36.8334 17.2084C36.8334 13.969 36.8321 11.6147 36.6454 9.77879C36.4603 7.95958 36.1014 6.76052 35.457 5.7962C34.8612 4.90448 34.0956 4.13885 33.2038 3.54302C32.2395 2.89868 31.0405 2.53972 29.2212 2.35466C27.3853 2.1679 25.0311 2.16669 21.7917 2.16669H17.2084C13.969 2.16669 11.6147 2.1679 9.77879 2.35466Z" fill="#222222"/>
<path fill-rule="evenodd" clip-rule="evenodd" d="M11.625 12.625C11.625 12.0727 12.0727 11.625 12.625 11.625L26.375 11.625C26.9273 11.625 27.375 12.0727 27.375 12.625C27.375 13.1773 26.9273 13.625 26.375 13.625L12.625 13.625C12.0727 13.625 11.625 13.1773 11.625 12.625Z" fill="#222222"/>
<path fill-rule="evenodd" clip-rule="evenodd" d="M11.625 21.7917C11.625 21.2394 12.0727 20.7917 12.625 20.7917H19.5C20.0523 20.7917 20.5 21.2394 20.5 21.7917C20.5 22.3439 20.0523 22.7917 19.5 22.7917H12.625C12.0727 22.7917 11.625 22.3439 11.625 21.7917Z" fill="#222222"/>
</svg>
