<svg width="16" height="18" viewBox="0 0 16 18" fill="none" xmlns="http://www.w3.org/2000/svg">
<path fill-rule="evenodd" clip-rule="evenodd" d="M6.6058 1.96737C6.03351 2.34535 5.36217 2.91957 4.42069 3.72655L3.42069 4.5837C2.35506 5.49709 1.94678 5.86113 1.72876 6.33516C1.51073 6.80919 1.50004 7.35609 1.50004 8.75961V13C1.50004 13.9569 1.5011 14.6244 1.5688 15.1279C1.63457 15.6171 1.75487 15.8762 1.93938 16.0607C2.12389 16.2452 2.38294 16.3655 2.87212 16.4312C3.37569 16.4989 4.0431 16.5 5.00004 16.5H11C11.957 16.5 12.6244 16.4989 13.128 16.4312C13.6171 16.3655 13.8762 16.2452 14.0607 16.0607C14.2452 15.8762 14.3655 15.6171 14.4313 15.1279C14.499 14.6244 14.5 13.9569 14.5 13V8.75961C14.5 7.35609 14.4893 6.80919 14.2713 6.33516C14.0533 5.86113 13.645 5.49709 12.5794 4.5837L11.5794 3.72655C10.6379 2.91957 9.96657 2.34535 9.39428 1.96737C8.83369 1.59712 8.41979 1.45123 8.00004 1.45123C7.58029 1.45123 7.16639 1.59712 6.6058 1.96737ZM6.05469 1.13294C6.7032 0.704625 7.31001 0.451233 8.00004 0.451233C8.69007 0.451233 9.29688 0.704625 9.94539 1.13294C10.5761 1.54953 11.2945 2.16531 12.2039 2.94481L13.2302 3.82444C13.2608 3.85066 13.291 3.87656 13.3209 3.90216C14.2643 4.71038 14.8591 5.21995 15.1798 5.91731C15.5006 6.61466 15.5004 7.3979 15.5001 8.64016C15.5 8.67951 15.5 8.71932 15.5 8.75961V13.0366C15.5001 13.9483 15.5001 14.6832 15.4224 15.2612C15.3417 15.8612 15.1691 16.3665 14.7678 16.7678C14.3665 17.169 13.8613 17.3416 13.2612 17.4223C12.6832 17.5 11.9484 17.5 11.0366 17.5H4.96344C4.05172 17.5 3.31685 17.5 2.73887 17.4223C2.1388 17.3416 1.63355 17.169 1.23227 16.7678C0.830995 16.3665 0.658399 15.8612 0.577721 15.2612C0.500014 14.6832 0.500025 13.9483 0.500039 13.0366L0.500039 8.75961C0.500039 8.71932 0.500029 8.67951 0.500019 8.64015C0.499705 7.3979 0.499506 6.61466 0.820244 5.91731C1.14098 5.21995 1.73579 4.71038 2.67918 3.90217C2.70907 3.87656 2.73931 3.85066 2.7699 3.82444L3.79615 2.9448C4.70554 2.16531 5.42394 1.54953 6.05469 1.13294Z" fill="#222222"/>
<path fill-rule="evenodd" clip-rule="evenodd" d="M5 12C5 11.1716 5.67157 10.5 6.5 10.5H9.5C10.3284 10.5 11 11.1716 11 12V17C11 17.2761 10.7761 17.5 10.5 17.5C10.2239 17.5 10 17.2761 10 17V12C10 11.7239 9.77614 11.5 9.5 11.5H6.5C6.22386 11.5 6 11.7239 6 12V17C6 17.2761 5.77614 17.5 5.5 17.5C5.22386 17.5 5 17.2761 5 17V12Z" fill="#222222"/>
</svg>
