<svg width="18" height="20" viewBox="0 0 18 20" fill="none" xmlns="http://www.w3.org/2000/svg">
<path fill-rule="evenodd" clip-rule="evenodd" d="M4.948 6.25H13.052C13.9505 6.24997 14.6997 6.24995 15.2945 6.32991C15.9223 6.41432 16.4891 6.59999 16.9445 7.05546C17.4 7.51093 17.5857 8.07773 17.6701 8.70552C17.7501 9.30031 17.75 10.0495 17.75 10.948V13.0549C17.75 14.4225 17.75 15.5248 17.6335 16.3918C17.5125 17.2919 17.2536 18.0497 16.6517 18.6517C16.0497 19.2536 15.2919 19.5125 14.3918 19.6335C13.5248 19.75 12.4225 19.75 11.0549 19.75H6.94513C5.57754 19.75 4.47522 19.75 3.60825 19.6335C2.70814 19.5125 1.95027 19.2536 1.34835 18.6517C0.746435 18.0497 0.487541 17.2919 0.366525 16.3918C0.249964 15.5248 0.249981 14.4225 0.250002 13.0549L0.250001 10.948C0.249972 10.0495 0.249947 9.3003 0.329913 8.70552C0.414318 8.07773 0.599989 7.51093 1.05546 7.05546C1.51093 6.59999 2.07773 6.41432 2.70552 6.32991C3.3003 6.24995 4.04952 6.24997 4.948 6.25ZM2.90539 7.81654C2.44393 7.87858 2.24644 7.9858 2.11612 8.11612C1.9858 8.24644 1.87858 8.44393 1.81654 8.90539C1.7516 9.38843 1.75 10.036 1.75 11V13C1.75 14.4354 1.7516 15.4365 1.85315 16.1919C1.9518 16.9257 2.13225 17.3142 2.40901 17.591C2.68577 17.8678 3.07435 18.0482 3.80812 18.1469C4.56347 18.2484 5.56459 18.25 7 18.25H11C12.4354 18.25 13.4365 18.2484 14.1919 18.1469C14.9257 18.0482 15.3142 17.8678 15.591 17.591C15.8678 17.3142 16.0482 16.9257 16.1469 16.1919C16.2484 15.4365 16.25 14.4354 16.25 13V11C16.25 10.036 16.2484 9.38843 16.1835 8.90539C16.1214 8.44393 16.0142 8.24644 15.8839 8.11612C15.7536 7.9858 15.5561 7.87858 15.0946 7.81654C14.6116 7.7516 13.964 7.75 13 7.75H5C4.03599 7.75 3.38843 7.7516 2.90539 7.81654Z" fill="#222222"/>
<path fill-rule="evenodd" clip-rule="evenodd" d="M4.25 5C4.25 2.37665 6.37665 0.25 9 0.25C11.6234 0.25 13.75 2.37665 13.75 5V6C13.75 6.41421 13.4142 6.75 13 6.75C12.5858 6.75 12.25 6.41421 12.25 6V5C12.25 3.20507 10.7949 1.75 9 1.75C7.20507 1.75 5.75 3.20507 5.75 5V6C5.75 6.41421 5.41421 6.75 5 6.75C4.58579 6.75 4.25 6.41421 4.25 6V5Z" fill="#222222"/>
<path d="M11 13C11 14.1046 10.1046 15 9 15C7.89543 15 7 14.1046 7 13C7 11.8954 7.89543 11 9 11C10.1046 11 11 11.8954 11 13Z" fill="#222222"/>
</svg>
