<svg width="27" height="27" viewBox="0 0 27 27" fill="none" xmlns="http://www.w3.org/2000/svg">
<path fill-rule="evenodd" clip-rule="evenodd" d="M9.61745 0.700923C12.2917 -0.110312 15.1529 -0.0634908 17.7993 0.83481C20.4456 1.73311 22.744 3.43776 24.3718 5.70936C25.9996 7.98096 26.875 10.7054 26.875 13.5C26.875 14.0523 26.4273 14.5 25.875 14.5C25.3227 14.5 24.875 14.0523 24.875 13.5C24.875 11.1233 24.1305 8.80624 22.7461 6.87432C21.3617 4.9424 19.407 3.49265 17.1564 2.72867C14.9058 1.96469 12.4724 1.92488 10.198 2.6148C7.92362 3.30473 5.92247 4.68975 4.47561 6.57534C3.02875 8.46093 2.20886 10.7524 2.13109 13.1278C2.05333 15.5033 2.72159 17.8434 4.04204 19.8196C5.36248 21.7958 7.26876 23.3087 9.49316 24.1459C11.7176 24.9831 14.1483 25.1026 16.4441 24.4874C16.9775 24.3445 17.5259 24.661 17.6688 25.1945C17.8118 25.728 17.4952 26.2763 16.9617 26.4193C14.2623 27.1426 11.4042 27.0021 8.78866 26.0177C6.17316 25.0333 3.9317 23.2544 2.3791 20.9308C0.82649 18.6071 0.0407267 15.8555 0.132164 13.0624C0.223602 10.2693 1.18765 7.57494 2.8889 5.35782C4.59016 3.1407 6.94316 1.51216 9.61745 0.700923Z" fill="#222222"/>
<path fill-rule="evenodd" clip-rule="evenodd" d="M13.5 9C11.0147 9 9 11.0147 9 13.5C9 15.9853 11.0147 18 13.5 18C15.9853 18 18 15.9853 18 13.5C18 11.0147 15.9853 9 13.5 9ZM7 13.5C7 9.91015 9.91015 7 13.5 7C17.0899 7 20 9.91015 20 13.5C20 17.0899 17.0899 20 13.5 20C9.91015 20 7 17.0899 7 13.5Z" fill="#222222"/>
<path fill-rule="evenodd" clip-rule="evenodd" d="M19 8.375C19.5523 8.375 20 8.82272 20 9.375V15.5625C20 16.9087 21.0913 18 22.4375 18C23.7837 18 24.875 16.9087 24.875 15.5625V13.5C24.875 12.9477 25.3227 12.5 25.875 12.5C26.4273 12.5 26.875 12.9477 26.875 13.5V15.5625C26.875 18.0133 24.8883 20 22.4375 20C19.9867 20 18 18.0133 18 15.5625V9.375C18 8.82272 18.4477 8.375 19 8.375Z" fill="#222222"/>
</svg>
