<svg width="26" height="27" viewBox="0 0 26 27" fill="none" xmlns="http://www.w3.org/2000/svg">
<path fill-rule="evenodd" clip-rule="evenodd" d="M4.14055 8.59626C4.64214 4.08194 8.45789 0.666687 13 0.666687C17.5421 0.666687 21.3578 4.08194 21.8594 8.59626L22.2162 11.8067C22.3026 12.5851 22.3399 12.9109 22.4052 13.2248C22.5198 13.7749 22.7001 14.3092 22.9424 14.8161C23.0806 15.1054 23.2484 15.3871 23.6514 16.0587L24.8276 18.0191C25.1982 18.6366 25.5327 19.1938 25.7269 19.6621C25.9304 20.1529 26.0991 20.8232 25.7242 21.4854C25.3493 22.1476 24.6876 22.3478 24.1621 22.4258C23.6606 22.5002 23.0107 22.5001 22.2905 22.5H3.70949C2.98929 22.5001 2.33937 22.5002 1.83784 22.4258C1.31235 22.3478 0.650722 22.1476 0.275781 21.4854C-0.0991609 20.8232 0.0695871 20.1529 0.273101 19.6621C0.467328 19.1938 0.801772 18.6366 1.17238 18.019L2.34859 16.0587C2.75153 15.3871 2.91937 15.1054 3.05762 14.8161C3.29988 14.3092 3.48022 13.7749 3.59475 13.2248C3.66011 12.9109 3.69734 12.5851 3.78383 11.8067L4.14055 8.59626ZM13 2.66669C9.47699 2.66669 6.51737 5.31567 6.12832 8.81713L5.76576 12.0801C5.68682 12.7908 5.63971 13.2149 5.55276 13.6325C5.4055 14.3397 5.17364 15.0267 4.86216 15.6785C4.67824 16.0633 4.45868 16.4292 4.09077 17.0424L2.92488 18.9855C2.50459 19.686 2.25084 20.1141 2.12053 20.4283C2.1182 20.4339 2.11595 20.4394 2.11379 20.4448C2.11949 20.4457 2.12534 20.4465 2.13135 20.4474C2.46783 20.4974 2.96548 20.5 3.78237 20.5H22.2176C23.0345 20.5 23.5322 20.4974 23.8686 20.4474C23.8746 20.4465 23.8805 20.4457 23.8862 20.4448C23.884 20.4394 23.8818 20.4339 23.8795 20.4283C23.7491 20.1141 23.4954 19.686 23.0751 18.9855L21.9092 17.0424C21.5413 16.4292 21.3217 16.0633 21.1378 15.6785C20.8263 15.0267 20.5945 14.3397 20.4472 13.6325C20.3603 13.2149 20.3132 12.7908 20.2342 12.0801L19.8717 8.81713C19.4826 5.31567 16.523 2.66669 13 2.66669Z" fill="#222222"/>
<path fill-rule="evenodd" clip-rule="evenodd" d="M16.2542 25.4704C15.3416 26.2875 14.1986 26.75 13 26.75C11.8014 26.75 10.6584 26.2875 9.74577 25.4704C8.83627 24.6562 8.2044 23.5363 7.92019 22.2988C7.79657 21.7605 8.1327 21.224 8.67097 21.1004C9.20925 20.9767 9.74582 21.3129 9.86944 21.8511C10.0695 22.7223 10.5048 23.4656 11.0798 23.9803C11.6516 24.4922 12.3274 24.75 13 24.75C13.6726 24.75 14.3484 24.4922 14.9202 23.9803C15.4952 23.4656 15.9305 22.7223 16.1306 21.8511C16.2542 21.3129 16.7908 20.9767 17.329 21.1004C17.8673 21.224 18.2034 21.7606 18.0798 22.2988C17.7956 23.5363 17.1637 24.6562 16.2542 25.4704Z" fill="#222222"/>
</svg>
