<svg width="45" height="45" viewBox="0 0 45 45" fill="none" xmlns="http://www.w3.org/2000/svg">
<path fill-rule="evenodd" clip-rule="evenodd" d="M22.5 2.875C11.6614 2.875 2.875 11.6614 2.875 22.5C2.875 33.3386 11.6614 42.125 22.5 42.125C33.3386 42.125 42.125 33.3386 42.125 22.5C42.125 11.6614 33.3386 2.875 22.5 2.875ZM0.875 22.5C0.875 10.5568 10.5568 0.875 22.5 0.875C34.4432 0.875 44.125 10.5568 44.125 22.5C44.125 34.4432 34.4432 44.125 22.5 44.125C10.5568 44.125 0.875 34.4432 0.875 22.5Z" fill="#222222"/>
<path fill-rule="evenodd" clip-rule="evenodd" d="M21.5 30.375L21.5 14.625L23.5 14.625L23.5 30.375L21.5 30.375Z" fill="#222222"/>
<path fill-rule="evenodd" clip-rule="evenodd" d="M30.375 21.5L14.625 21.5L14.625 23.5L30.375 23.5L30.375 21.5Z" fill="#222222"/>
</svg>
