<svg width="16" height="16" viewBox="0 0 16 16" fill="none" xmlns="http://www.w3.org/2000/svg">
<path fill-rule="evenodd" clip-rule="evenodd" d="M8 7C9.65685 7 11 5.65685 11 4C11 2.34315 9.65685 1 8 1C6.34315 1 5 2.34315 5 4C5 5.65685 6.34315 7 8 7ZM8 8C10.2091 8 12 6.20914 12 4C12 1.79086 10.2091 0 8 0C5.79086 0 4 1.79086 4 4C4 6.20914 5.79086 8 8 8Z" fill="#222222"/>
<path fill-rule="evenodd" clip-rule="evenodd" d="M0.366746 12.8163C1.09211 10.1578 3.80799 9 6.34498 9H9.65499C12.192 9 14.9079 10.1578 15.6332 12.8163C15.7707 13.3202 15.8808 13.8666 15.9433 14.4481C16.0379 15.3284 15.3126 16 14.5 16H1.49998C0.687326 16 -0.037911 15.3284 0.0566699 14.4481C0.119156 13.8666 0.229278 13.3202 0.366746 12.8163ZM6.34498 10C4.02144 10 1.88552 11.0489 1.33148 13.0796C1.2066 13.5372 1.10722 14.0313 1.05095 14.555C1.02752 14.773 1.20807 15 1.49998 15H14.5C14.7919 15 14.9724 14.773 14.949 14.555C14.8928 14.0313 14.7934 13.5372 14.6685 13.0796C14.1144 11.0489 11.9785 10 9.65499 10H6.34498Z" fill="#222222"/>
</svg>
