<svg width="37" height="37" viewBox="0 0 37 37" fill="none" xmlns="http://www.w3.org/2000/svg">
<path fill-rule="evenodd" clip-rule="evenodd" d="M15.2083 2.45831C8.16671 2.45831 2.45834 8.16668 2.45834 15.2083C2.45834 22.2499 8.16671 27.9583 15.2083 27.9583C22.25 27.9583 27.9583 22.2499 27.9583 15.2083C27.9583 8.16668 22.25 2.45831 15.2083 2.45831ZM0.458344 15.2083C0.458344 7.06211 7.06214 0.458313 15.2083 0.458313C23.3545 0.458313 29.9583 7.06211 29.9583 15.2083C29.9583 23.3545 23.3545 29.9583 15.2083 29.9583C7.06214 29.9583 0.458344 23.3545 0.458344 15.2083Z" fill="#222222"/>
<path fill-rule="evenodd" clip-rule="evenodd" d="M12.1947 7.93276C13.1502 7.53701 14.1742 7.33331 15.2083 7.33331C15.7606 7.33331 16.2083 7.78103 16.2083 8.33331C16.2083 8.8856 15.7606 9.33331 15.2083 9.33331C14.4368 9.33331 13.6729 9.48527 12.9601 9.78052C12.2473 10.0758 11.5996 10.5085 11.0541 11.0541C10.5085 11.5996 10.0758 12.2473 9.78055 12.96C9.4853 13.6728 9.33334 14.4368 9.33334 15.2083C9.33334 15.7606 8.88563 16.2083 8.33334 16.2083C7.78106 16.2083 7.33334 15.7606 7.33334 15.2083C7.33334 14.1742 7.53704 13.1501 7.93279 12.1947C8.32855 11.2392 8.90862 10.3711 9.63988 9.63985C10.3711 8.90859 11.2393 8.32852 12.1947 7.93276Z" fill="#222222"/>
<path fill-rule="evenodd" clip-rule="evenodd" d="M28.2512 28.2512C28.6417 27.8607 29.2749 27.8607 29.6654 28.2512L36.5404 35.1262C36.9309 35.5167 36.9309 36.1499 36.5404 36.5404C36.1499 36.9309 35.5167 36.9309 35.1262 36.5404L28.2512 29.6654C27.8607 29.2749 27.8607 28.6417 28.2512 28.2512Z" fill="#222222"/>
</svg>
