<svg width="55" height="55" viewBox="0 0 55 55" fill="none" xmlns="http://www.w3.org/2000/svg">
<path fill-rule="evenodd" clip-rule="evenodd" d="M22.84 5.875H32.16C35.336 5.87498 37.8216 5.87497 39.7603 6.13562C41.7434 6.40224 43.3032 6.95795 44.5268 8.18153C45.7504 9.40512 46.3061 10.965 46.5727 12.948C46.8334 14.8867 46.8334 17.3724 46.8334 20.5483V36.3631C46.8334 39.3603 46.8334 41.7245 46.581 43.4516C46.3277 45.185 45.7718 46.6372 44.3357 47.3352C42.8995 48.0332 41.4142 47.5731 39.8947 46.7014C38.3807 45.8328 36.5217 44.3721 34.165 42.5204L32.5456 41.248C31.167 40.1648 30.2016 39.4085 29.3869 38.9128C28.5952 38.4312 28.0414 38.2574 27.5 38.2574C26.9587 38.2574 26.4049 38.4312 25.6132 38.9128C24.7984 39.4085 23.8331 40.1648 22.4545 41.248L20.8351 42.5204C18.4784 44.3721 16.6193 45.8328 15.1053 46.7014C13.5858 47.5731 12.1005 48.0332 10.6644 47.3352C9.22827 46.6372 8.67239 45.185 8.41905 43.4516C8.16664 41.7245 8.16666 39.3603 8.16669 36.3631L8.16669 20.5483C8.16667 17.3724 8.16666 14.8867 8.42731 12.948C8.69392 10.965 9.24963 9.40512 10.4732 8.18153C11.6968 6.95795 13.2566 6.40224 15.2397 6.13562C17.1784 5.87497 19.6641 5.87498 22.84 5.875ZM15.5062 8.11779C13.7449 8.35458 12.6775 8.8057 11.8874 9.59575C11.0974 10.3858 10.6463 11.4532 10.4095 13.2145C10.1688 15.0045 10.1667 17.3558 10.1667 20.625V36.2716C10.1667 39.3802 10.1693 41.5973 10.398 43.1624C10.6284 44.7387 11.0399 45.294 11.5387 45.5364C12.0374 45.7788 12.7283 45.7593 14.1101 44.9666C15.4821 44.1795 17.227 42.8118 19.6714 40.8912L21.2689 39.6361C22.5858 38.6013 23.6445 37.7694 24.5737 37.2042C25.5377 36.6177 26.4562 36.2574 27.5 36.2574C28.5439 36.2574 29.4624 36.6177 30.4264 37.2042C31.3555 37.7694 32.4143 38.6013 33.7311 39.636L35.3287 40.8912C37.773 42.8118 39.518 44.1795 40.8899 44.9666C42.2718 45.7593 42.9627 45.7788 43.4614 45.5364C43.9601 45.294 44.3716 44.7387 44.602 43.1624C44.8307 41.5973 44.8334 39.3802 44.8334 36.2716V20.625C44.8334 17.3558 44.8312 15.0045 44.5906 13.2145C44.3538 11.4532 43.9027 10.3858 43.1126 9.59575C42.3226 8.8057 41.2551 8.35458 39.4939 8.11779C37.7038 7.87712 35.3525 7.875 32.0834 7.875H22.9167C19.6475 7.875 17.2962 7.87712 15.5062 8.11779Z" fill="#222222"/>
</svg>
