<svg width="55" height="55" viewBox="0 0 55 55" fill="none" xmlns="http://www.w3.org/2000/svg">
<path fill-rule="evenodd" clip-rule="evenodd" d="M11.1122 8.16666C11.1303 8.16667 11.1485 8.16667 11.1666 8.16667H20.9166C20.9348 8.16667 20.9529 8.16667 20.971 8.16666C21.3951 8.16658 21.8072 8.1665 22.1472 8.2122C22.5304 8.26372 22.9676 8.38924 23.3309 8.75246C23.6941 9.11567 23.8196 9.55295 23.8711 9.93615C23.9168 10.2761 23.9167 10.6882 23.9166 11.1123C23.9166 11.1304 23.9166 11.1485 23.9166 11.1667V23.2083C23.9166 23.2265 23.9166 23.2446 23.9166 23.2627C23.9167 23.6868 23.9168 24.0989 23.8711 24.4389C23.8196 24.8221 23.6941 25.2593 23.3309 25.6225C22.9676 25.9858 22.5304 26.1113 22.1472 26.1628C21.8072 26.2085 21.3951 26.2084 20.971 26.2083C20.9529 26.2083 20.9348 26.2083 20.9166 26.2083H11.1666C11.1485 26.2083 11.1304 26.2083 11.1123 26.2083C10.6882 26.2084 10.276 26.2085 9.93612 26.1628C9.55292 26.1113 9.11564 25.9858 8.75243 25.6225C8.38921 25.2593 8.26369 24.8221 8.21217 24.4389C8.16647 24.0989 8.16655 23.6868 8.16663 23.2627C8.16664 23.2446 8.16664 23.2265 8.16664 23.2083V11.1667C8.16664 11.1485 8.16664 11.1304 8.16663 11.1123C8.16655 10.6882 8.16647 10.2761 8.21217 9.93615C8.26369 9.55295 8.38921 9.11567 8.75243 8.75246C9.11564 8.38924 9.55292 8.26372 9.93612 8.2122C10.276 8.1665 10.6882 8.16658 11.1122 8.16666ZM10.1953 10.1954C10.195 10.1977 10.1947 10.2002 10.1943 10.2026C10.1688 10.3928 10.1666 10.667 10.1666 11.1667V23.2083C10.1666 23.708 10.1688 23.9822 10.1943 24.1724C10.1947 24.1748 10.195 24.1773 10.1953 24.1796C10.1977 24.18 10.2001 24.1803 10.2026 24.1806C10.3928 24.2062 10.667 24.2083 11.1666 24.2083H20.9166C21.4163 24.2083 21.6905 24.2062 21.8807 24.1806C21.8831 24.1803 21.8856 24.18 21.8879 24.1796C21.8883 24.1773 21.8886 24.1748 21.8889 24.1724C21.9145 23.9822 21.9166 23.708 21.9166 23.2083V11.1667C21.9166 10.667 21.9145 10.3928 21.8889 10.2026C21.8886 10.2002 21.8883 10.1977 21.8879 10.1954C21.8856 10.195 21.8831 10.1947 21.8807 10.1944C21.6905 10.1688 21.4163 10.1667 20.9166 10.1667H11.1666C10.667 10.1667 10.3928 10.1688 10.2026 10.1944C10.2001 10.1947 10.1977 10.195 10.1953 10.1954Z" fill="#222222"/>
<path fill-rule="evenodd" clip-rule="evenodd" d="M11.1122 33.375C11.1303 33.375 11.1485 33.375 11.1666 33.375H20.9166C20.9348 33.375 20.9529 33.375 20.971 33.375C21.3951 33.3749 21.8072 33.3748 22.1472 33.4205C22.5304 33.4721 22.9676 33.5976 23.3309 33.9608C23.6941 34.324 23.8196 34.7613 23.8711 35.1445C23.9168 35.4844 23.9167 35.8965 23.9166 36.3206C23.9166 36.3387 23.9166 36.3569 23.9166 36.375V43.8333C23.9166 43.8515 23.9166 43.8696 23.9166 43.8878C23.9167 44.3118 23.9168 44.724 23.8711 45.0639C23.8196 45.4471 23.6941 45.8843 23.3309 46.2476C22.9676 46.6108 22.5304 46.7363 22.1472 46.7878C21.8072 46.8335 21.3951 46.8334 20.9711 46.8334C20.9529 46.8334 20.9348 46.8333 20.9166 46.8333H11.1666C11.1485 46.8333 11.1303 46.8334 11.1122 46.8334C10.6882 46.8334 10.276 46.8335 9.93612 46.7878C9.55292 46.7363 9.11564 46.6108 8.75243 46.2476C8.38921 45.8843 8.26369 45.4471 8.21217 45.0639C8.16647 44.724 8.16655 44.3118 8.16663 43.8878C8.16664 43.8696 8.16664 43.8515 8.16664 43.8333V36.375C8.16664 36.3569 8.16664 36.3387 8.16663 36.3206C8.16655 35.8965 8.16647 35.4844 8.21217 35.1445C8.26369 34.7613 8.38921 34.324 8.75243 33.9608C9.11564 33.5976 9.55292 33.4721 9.93612 33.4205C10.276 33.3748 10.6882 33.3749 11.1122 33.375ZM10.1953 35.4037C10.195 35.4061 10.1947 35.4085 10.1943 35.411C10.1688 35.6012 10.1666 35.8753 10.1666 36.375V43.8333C10.1666 44.333 10.1688 44.6072 10.1943 44.7974C10.1947 44.7998 10.195 44.8023 10.1953 44.8047C10.1977 44.805 10.2001 44.8053 10.2026 44.8057C10.3928 44.8312 10.667 44.8333 11.1666 44.8333H20.9166C21.4163 44.8333 21.6905 44.8312 21.8807 44.8057C21.8831 44.8053 21.8856 44.805 21.8879 44.8047C21.8883 44.8023 21.8886 44.7998 21.8889 44.7974C21.9145 44.6072 21.9166 44.333 21.9166 43.8333V36.375C21.9166 35.8753 21.9145 35.6012 21.8889 35.411C21.8886 35.4085 21.8883 35.4061 21.8879 35.4037C21.8856 35.4034 21.8831 35.403 21.8807 35.4027C21.6905 35.3771 21.4163 35.375 20.9166 35.375H11.1666C10.667 35.375 10.3928 35.3771 10.2026 35.4027C10.2001 35.403 10.1977 35.4034 10.1953 35.4037Z" fill="#222222"/>
<path fill-rule="evenodd" clip-rule="evenodd" d="M34.0289 8.16666C34.047 8.16667 34.0652 8.16667 34.0833 8.16667H43.8333C43.8515 8.16667 43.8696 8.16667 43.8877 8.16666C44.3118 8.16658 44.7239 8.1665 45.0638 8.2122C45.447 8.26372 45.8843 8.38924 46.2475 8.75246C46.6108 9.11567 46.7363 9.55295 46.7878 9.93615C46.8335 10.2761 46.8334 10.6882 46.8333 11.1123C46.8333 11.1304 46.8333 11.1485 46.8333 11.1667V18.625C46.8333 18.6432 46.8333 18.6613 46.8333 18.6794C46.8334 19.1035 46.8335 19.5156 46.7878 19.8555C46.7363 20.2387 46.6108 20.676 46.2475 21.0392C45.8843 21.4024 45.447 21.528 45.0638 21.5795C44.7239 21.6252 44.3118 21.6251 43.8877 21.625C43.8696 21.625 43.8515 21.625 43.8333 21.625H34.0833C34.0652 21.625 34.047 21.625 34.0289 21.625C33.6048 21.6251 33.1927 21.6252 32.8528 21.5795C32.4696 21.528 32.0323 21.4024 31.6691 21.0392C31.3059 20.676 31.1804 20.2387 31.1289 19.8555C31.0832 19.5156 31.0832 19.1035 31.0833 18.6794C31.0833 18.6613 31.0833 18.6432 31.0833 18.625V11.1667C31.0833 11.1485 31.0833 11.1304 31.0833 11.1123C31.0832 10.6882 31.0832 10.2761 31.1289 9.93615C31.1804 9.55295 31.3059 9.11567 31.6691 8.75246C32.0323 8.38924 32.4696 8.26372 32.8528 8.2122C33.1927 8.1665 33.6048 8.16658 34.0289 8.16666ZM33.112 10.1954C33.1117 10.1977 33.1114 10.2002 33.111 10.2026C33.0855 10.3928 33.0833 10.667 33.0833 11.1667V18.625C33.0833 19.1247 33.0855 19.3988 33.111 19.589C33.1114 19.5915 33.1117 19.5939 33.112 19.5963C33.1144 19.5966 33.1168 19.597 33.1193 19.5973C33.3095 19.6229 33.5837 19.625 34.0833 19.625H43.8333C44.333 19.625 44.6072 19.6229 44.7974 19.5973C44.7998 19.597 44.8023 19.5966 44.8046 19.5963C44.805 19.5939 44.8053 19.5915 44.8056 19.589C44.8312 19.3988 44.8333 19.1247 44.8333 18.625V11.1667C44.8333 10.667 44.8312 10.3928 44.8056 10.2026C44.8053 10.2002 44.805 10.1977 44.8046 10.1954C44.8023 10.195 44.7998 10.1947 44.7974 10.1944C44.6072 10.1688 44.333 10.1667 43.8333 10.1667H34.0833C33.5837 10.1667 33.3095 10.1688 33.1193 10.1944C33.1168 10.1947 33.1144 10.195 33.112 10.1954Z" fill="#222222"/>
<path fill-rule="evenodd" clip-rule="evenodd" d="M34.0289 28.7917C34.047 28.7917 34.0652 28.7917 34.0833 28.7917H43.8333C43.8515 28.7917 43.8696 28.7917 43.8877 28.7917C44.3118 28.7916 44.7239 28.7915 45.0638 28.8372C45.447 28.8887 45.8843 29.0142 46.2475 29.3775C46.6108 29.7407 46.7363 30.1779 46.7878 30.5612C46.8335 30.9011 46.8334 31.3132 46.8333 31.7373C46.8333 31.7554 46.8333 31.7735 46.8333 31.7917V43.8333C46.8333 43.8515 46.8333 43.8696 46.8333 43.8877C46.8334 44.3118 46.8335 44.7239 46.7878 45.0639C46.7363 45.4471 46.6108 45.8843 46.2475 46.2475C45.8843 46.6108 45.447 46.7363 45.0638 46.7878C44.7239 46.8335 44.3118 46.8334 43.8877 46.8333C43.8696 46.8333 43.8515 46.8333 43.8333 46.8333H34.0833C34.0652 46.8333 34.047 46.8333 34.0289 46.8333C33.6049 46.8334 33.1927 46.8335 32.8528 46.7878C32.4696 46.7363 32.0323 46.6108 31.6691 46.2475C31.3059 45.8843 31.1804 45.4471 31.1289 45.0639C31.0832 44.7239 31.0832 44.3118 31.0833 43.8877C31.0833 43.8696 31.0833 43.8515 31.0833 43.8333V31.7917C31.0833 31.7735 31.0833 31.7554 31.0833 31.7373C31.0832 31.3132 31.0832 30.9011 31.1289 30.5612C31.1804 30.1779 31.3059 29.7407 31.6691 29.3775C32.0323 29.0142 32.4696 28.8887 32.8528 28.8372C33.1927 28.7915 33.6048 28.7916 34.0289 28.7917ZM33.112 30.8204C33.1117 30.8227 33.1114 30.8252 33.111 30.8276C33.0855 31.0178 33.0833 31.292 33.0833 31.7917V43.8333C33.0833 44.333 33.0855 44.6072 33.111 44.7974C33.1114 44.7998 33.1117 44.8023 33.112 44.8046C33.1144 44.805 33.1168 44.8053 33.1193 44.8056C33.3095 44.8312 33.5837 44.8333 34.0833 44.8333H43.8333C44.333 44.8333 44.6072 44.8312 44.7974 44.8056C44.7998 44.8053 44.8023 44.805 44.8046 44.8046C44.805 44.8023 44.8053 44.7998 44.8056 44.7974C44.8312 44.6072 44.8333 44.333 44.8333 43.8333V31.7917C44.8333 31.292 44.8312 31.0178 44.8056 30.8276C44.8053 30.8252 44.805 30.8227 44.8046 30.8204C44.8023 30.82 44.7998 30.8197 44.7974 30.8194C44.6072 30.7938 44.333 30.7917 43.8333 30.7917H34.0833C33.5837 30.7917 33.3095 30.7938 33.1193 30.8194C33.1168 30.8197 33.1144 30.82 33.112 30.8204Z" fill="#222222"/>
</svg>
