<svg width="55" height="55" viewBox="0 0 55 55" fill="none" xmlns="http://www.w3.org/2000/svg">
<path fill-rule="evenodd" clip-rule="evenodd" d="M25.1509 8.16669H29.8491C33.0191 8.16668 35.4748 8.16667 37.4237 8.36493C39.401 8.56608 40.9673 8.97956 42.315 9.88008C43.4251 10.6218 44.3782 11.575 45.12 12.6851C46.0205 14.0328 46.434 15.599 46.6351 17.5764C46.8334 19.5253 46.8334 21.981 46.8334 25.1509V25.2658C46.8334 28.4358 46.8334 30.8914 46.6351 32.8403C46.434 34.8177 46.0205 36.3839 45.12 37.7317C44.3782 38.8418 43.4251 39.7949 42.315 40.5366C41.1378 41.3232 39.7944 41.738 38.1552 41.9646C36.6696 42.17 34.8879 42.2269 32.7048 42.2433L30.4442 46.7644C29.2311 49.1906 25.7689 49.1906 24.5559 46.7644L22.2953 42.2433C20.1121 42.2269 18.3304 42.17 16.8449 41.9646C15.2057 41.738 13.8623 41.3232 12.6851 40.5366C11.575 39.7949 10.6218 38.8418 9.88008 37.7317C8.97956 36.3839 8.56608 34.8177 8.36493 32.8403C8.16667 30.8914 8.16668 28.4357 8.16669 25.2658V25.1509C8.16668 21.981 8.16667 19.5253 8.36493 17.5764C8.56608 15.599 8.97956 14.0328 9.88008 12.6851C10.6218 11.575 11.575 10.6218 12.6851 9.88008C14.0328 8.97956 15.599 8.56608 17.5764 8.36493C19.5253 8.16667 21.981 8.16668 25.1509 8.16669ZM17.7788 10.3547C15.9596 10.5397 14.7605 10.8987 13.7962 11.543C12.9045 12.1388 12.1388 12.9045 11.543 13.7962C10.8987 14.7605 10.5397 15.9596 10.3547 17.7788C10.1679 19.6147 10.1667 21.969 10.1667 25.2084C10.1667 28.4477 10.1679 30.802 10.3547 32.6379C10.5397 34.4571 10.8987 35.6562 11.543 36.6205C12.1388 37.5122 12.9045 38.2779 13.7962 38.8737C14.6388 39.4367 15.661 39.7819 17.1187 39.9834C18.5925 40.1872 20.4439 40.2361 22.921 40.2469C23.3313 40.2487 23.6829 40.4973 23.8355 40.8516L26.3447 45.87C26.8207 46.822 28.1793 46.822 28.6553 45.87L31.1645 40.8516C31.3172 40.4973 31.6688 40.2487 32.079 40.2469C34.5561 40.2361 36.4076 40.1872 37.8813 39.9834C39.339 39.7819 40.3613 39.4367 41.2038 38.8737C42.0956 38.2779 42.8612 37.5122 43.457 36.6205C44.1014 35.6562 44.4603 34.4571 44.6454 32.6379C44.8321 30.802 44.8334 28.4477 44.8334 25.2084C44.8334 21.969 44.8321 19.6147 44.6454 17.7788C44.4603 15.9596 44.1014 14.7605 43.457 13.7962C42.8612 12.9045 42.0956 12.1388 41.2038 11.543C40.2395 10.8987 39.0405 10.5397 37.2212 10.3547C35.3853 10.1679 33.0311 10.1667 29.7917 10.1667H25.2084C21.969 10.1667 19.6147 10.1679 17.7788 10.3547Z" fill="#222222"/>
<path fill-rule="evenodd" clip-rule="evenodd" d="M19.625 20.625C19.625 20.0727 20.0727 19.625 20.625 19.625L34.375 19.625C34.9273 19.625 35.375 20.0727 35.375 20.625C35.375 21.1773 34.9273 21.625 34.375 21.625L20.625 21.625C20.0727 21.625 19.625 21.1773 19.625 20.625Z" fill="#222222"/>
<path fill-rule="evenodd" clip-rule="evenodd" d="M19.625 29.7917C19.625 29.2394 20.0727 28.7917 20.625 28.7917H27.5C28.0523 28.7917 28.5 29.2394 28.5 29.7917C28.5 30.3439 28.0523 30.7917 27.5 30.7917H20.625C20.0727 30.7917 19.625 30.3439 19.625 29.7917Z" fill="#222222"/>
</svg>
