<svg width="55" height="55" viewBox="0 0 55 55" fill="none" xmlns="http://www.w3.org/2000/svg">
<path fill-rule="evenodd" clip-rule="evenodd" d="M24.3049 13.6752C22.9934 14.5414 21.4549 15.8574 19.2973 17.7067L17.0057 19.671C14.5636 21.7642 13.628 22.5984 13.1283 23.6848C12.6287 24.7711 12.6042 26.0244 12.6042 29.2408V38.9583C12.6042 41.1513 12.6066 42.6808 12.7618 43.8348C12.9125 44.9559 13.1882 45.5495 13.611 45.9723C14.0338 46.3952 14.6275 46.6709 15.7485 46.8216C16.9026 46.9767 18.432 46.9792 20.625 46.9792H34.375C36.568 46.9792 38.0975 46.9767 39.2515 46.8216C40.3726 46.6709 40.9662 46.3952 41.389 45.9723C41.8119 45.5495 42.0876 44.9559 42.2383 43.8348C42.3934 42.6808 42.3959 41.1513 42.3959 38.9583V29.2408C42.3959 26.0244 42.3714 24.7711 41.8717 23.6848C41.3721 22.5984 40.4364 21.7642 37.9944 19.671L35.7027 17.7067C33.5452 15.8574 32.0067 14.5414 30.6952 13.6752C29.4105 12.8267 28.4619 12.4924 27.5 12.4924C26.5381 12.4924 25.5896 12.8267 24.3049 13.6752ZM23.0419 11.763C24.5281 10.7814 25.9187 10.2007 27.5 10.2007C29.0813 10.2007 30.472 10.7814 31.9581 11.763C33.4036 12.7177 35.0499 14.1288 37.134 15.9152L39.4858 17.931C39.5559 17.9911 39.6252 18.0505 39.6936 18.1091C41.8556 19.9613 43.2187 21.1291 43.9537 22.7272C44.6888 24.3253 44.6883 26.1202 44.6876 28.967C44.6876 29.0572 44.6875 29.1485 44.6875 29.2408V39.0421C44.6876 41.1315 44.6876 42.8156 44.5095 44.1402C44.3246 45.5153 43.9291 46.6732 43.0095 47.5928C42.0899 48.5124 40.932 48.9079 39.5569 49.0928C38.2323 49.2709 36.5483 49.2709 34.4589 49.2708H20.5412C18.4518 49.2709 16.7677 49.2709 15.4432 49.0928C14.068 48.9079 12.9102 48.5124 11.9906 47.5928C11.071 46.6732 10.6754 45.5153 10.4906 44.1402C10.3125 42.8156 10.3125 41.1315 10.3125 39.0422L10.3125 29.2408C10.3125 29.1484 10.3125 29.0572 10.3125 28.967C10.3118 26.1202 10.3113 24.3253 11.0463 22.7272C11.7814 21.1291 13.1445 19.9613 15.3064 18.1091C15.3749 18.0505 15.4442 17.9911 15.5143 17.931L17.8661 15.9152C19.9501 14.1288 21.5965 12.7177 23.0419 11.763Z" fill="#222222"/>
<path fill-rule="evenodd" clip-rule="evenodd" d="M20.625 36.6667C20.625 34.7682 22.164 33.2292 24.0625 33.2292H30.9375C32.836 33.2292 34.375 34.7682 34.375 36.6667V48.125C34.375 48.7578 33.862 49.2709 33.2292 49.2709C32.5963 49.2709 32.0833 48.7578 32.0833 48.125V36.6667C32.0833 36.0339 31.5703 35.5209 30.9375 35.5209H24.0625C23.4297 35.5209 22.9167 36.0339 22.9167 36.6667V48.125C22.9167 48.7578 22.4037 49.2709 21.7708 49.2709C21.138 49.2709 20.625 48.7578 20.625 48.125V36.6667Z" fill="#222222"/>
</svg>
