<svg width="100" height="36" viewBox="0 0 100 36" fill="none" xmlns="http://www.w3.org/2000/svg">
<path d="M16.6604 22.6312V2.08419C16.6604 0.868845 17.4 0.261173 18.8793 0.261173C20.3585 0.261173 21.0982 0.868845 21.0982 2.08419V28.2902C21.0982 29.1763 20.6343 29.822 19.7067 30.2271H19.7443C19.3431 30.4044 18.9169 30.5436 18.4656 30.6449C18.0143 30.7462 17.5755 30.7968 17.1493 30.7968C16.8234 30.7968 16.4849 30.7652 16.1339 30.7019C15.7829 30.6386 15.4507 30.5373 15.1373 30.398C14.8239 30.2588 14.5355 30.0689 14.2723 29.8283C14.009 29.5878 13.8022 29.2903 13.6517 28.9358L5.49079 8.38882L4.47537 8.50276V29.0118C4.47537 30.2271 3.7232 30.8348 2.21888 30.8348C0.739627 30.8348 0 30.2271 0 29.0118V2.84379C0 1.80568 0.451297 1.10938 1.35389 0.754907C2.18127 0.42575 3.05879 0.261173 3.98646 0.261173C4.63834 0.261173 5.29648 0.3941 5.96089 0.659957C6.6253 0.925815 7.13301 1.42588 7.48402 2.16015L15.6074 22.7451L16.6604 22.6312ZM30.6506 1.8943V29.1257C30.6506 30.3157 29.9611 30.9107 28.5822 30.9107C27.1781 30.9107 26.4761 30.3157 26.4761 29.1257V1.8943C26.4761 0.704267 27.1781 0.109253 28.5822 0.109253C29.9611 0.109253 30.6506 0.704267 30.6506 1.8943ZM41.8578 7.74316H47.8751C48.527 7.74316 49.1977 7.88242 49.8872 8.16094C50.5767 8.43946 51.2473 8.79393 51.8992 9.22437H51.8616C52.5135 9.70544 53.0149 10.3321 53.3659 11.1044C53.7169 11.8766 53.8924 12.7691 53.8924 13.7819V24.5681C53.8924 26.6444 53.2155 28.1762 51.8616 29.1637C50.5328 30.1258 49.204 30.6069 47.8751 30.6069H41.8578C41.206 30.6069 40.5416 30.493 39.8646 30.2651C39.1877 30.0372 38.5233 29.6701 37.8714 29.1637C36.5175 28.2015 35.8405 26.6697 35.8405 24.5681V13.7819C35.8405 12.7691 36.016 11.8766 36.3671 11.1044C36.7181 10.3321 37.2195 9.70544 37.8714 9.22437H37.8338C38.4606 8.79393 39.125 8.43946 39.827 8.16094C40.529 7.88242 41.206 7.74316 41.8578 7.74316ZM42.5348 27.0368H47.1982C48.1259 27.0368 48.784 26.771 49.1726 26.2393C49.5612 25.7075 49.7555 25.1378 49.7555 24.5302V13.8199C49.7555 13.1869 49.5612 12.6109 49.1726 12.0918C48.784 11.5728 48.1259 11.3132 47.1982 11.3132H42.5348C41.6071 11.3132 40.949 11.5728 40.5604 12.0918C40.1717 12.6109 39.9774 13.1869 39.9774 13.8199V24.5302C39.9774 25.1378 40.1717 25.7075 40.5604 26.2393C40.949 26.771 41.6071 27.0368 42.5348 27.0368ZM69.2366 27.9483H64.686C64.0341 27.9483 63.3634 27.8344 62.6739 27.6065C61.9845 27.3786 61.3138 27.0495 60.6619 26.619C59.308 25.7329 58.6311 24.239 58.6311 22.1374V13.554C58.6311 12.4906 58.8128 11.5791 59.1764 10.8195C59.5399 10.0599 60.0351 9.4649 60.6619 9.03447C61.3138 8.62935 61.9782 8.31286 62.6551 8.08498C63.3321 7.8571 63.9965 7.74316 64.6484 7.74316H70.9665C71.5933 7.74316 72.2452 7.88242 72.9221 8.16094C73.5991 8.43946 74.2259 8.79393 74.8026 9.22437C75.3792 9.70544 75.8431 10.3384 76.1941 11.1234C76.5451 11.9083 76.7206 12.7945 76.7206 13.7819V29.8853C76.7206 30.9487 76.5513 31.8539 76.2129 32.6008C75.8744 33.3478 75.4043 33.9744 74.8026 34.4808C74.2259 34.9619 73.6054 35.3354 72.941 35.6012C72.2765 35.8671 71.6184 36 70.9665 36H64.6484C63.3195 36 61.9782 35.6076 60.6243 34.8227C59.9223 34.4175 59.4146 33.8985 59.1012 33.2655C58.7878 32.6325 58.6311 31.8982 58.6311 31.0627V30.6069C58.6311 30.1005 58.794 29.6954 59.12 29.3916C59.4459 29.0877 59.9599 28.9358 60.6619 28.9358C62.0659 29.0877 62.768 29.6448 62.768 30.6069V31.0247C62.768 31.3032 62.9623 31.607 63.3509 31.9362C63.7395 32.2654 64.3976 32.4299 65.3253 32.4299H70.0263C70.954 32.4299 71.6121 32.1641 72.0008 31.6324C72.3894 31.1006 72.5837 30.5056 72.5837 29.8473V13.8199C72.5837 13.1869 72.3894 12.6109 72.0008 12.0918C71.6121 11.5728 70.954 11.3132 70.0263 11.3132H65.3253C64.3976 11.3132 63.7395 11.5728 63.3509 12.0918C62.9623 12.6109 62.768 13.1869 62.768 13.8199V21.8336C62.768 22.4666 62.9623 23.0553 63.3509 23.5997C63.7395 24.144 64.3976 24.4162 65.3253 24.4162H69.2366C70.1392 24.4162 70.5904 24.9986 70.5904 26.1633C70.5904 26.695 70.4839 27.1254 70.2708 27.4546C70.0577 27.7838 69.7129 27.9483 69.2366 27.9483ZM88.4543 17.314H93.9827C94.6095 17.314 95.2802 17.4596 95.9947 17.7508C96.7093 18.042 97.38 18.4028 98.0068 18.8332H97.9692C98.621 19.3143 99.1225 19.9346 99.4735 20.6942C99.8245 21.4538 100 22.3653 100 23.4288V24.5681C100 26.6444 99.3231 28.1762 97.9692 29.1637C97.3173 29.6701 96.6529 30.0372 95.9759 30.2651C95.299 30.493 94.6346 30.6069 93.9827 30.6069H87.5893C86.9374 30.6069 86.273 30.493 85.5961 30.2651C84.9191 30.0372 84.2547 29.6701 83.6029 29.1637C82.249 28.2015 81.572 26.6697 81.572 24.5681V24.1124C81.572 23.0236 82.2615 22.4919 83.6405 22.5172C85.0445 22.5172 85.7465 23.049 85.7465 24.1124V24.5302C85.7465 25.1378 85.9346 25.7075 86.3106 26.2393C86.6867 26.771 87.3511 27.0368 88.3039 27.0368H93.2682C94.2209 27.0368 94.8853 26.771 95.2614 26.2393C95.6375 25.7075 95.8255 25.1378 95.8255 24.5302V23.4667C95.8255 23.1376 95.7816 22.8211 95.6939 22.5172C95.6061 22.2134 95.462 21.9412 95.2614 21.7007C95.0608 21.4601 94.7975 21.2639 94.4716 21.112C94.1457 20.9601 93.7445 20.8841 93.2682 20.8841H87.7774C86.4987 20.8841 85.1573 20.4284 83.7533 19.5169C82.4245 18.656 81.7601 17.1748 81.7601 15.0732V13.7819C81.7601 12.7691 81.9356 11.8766 82.2866 11.1044C82.6376 10.3321 83.139 9.70544 83.7909 9.22437H83.7533C84.3801 8.79393 85.0445 8.43946 85.7465 8.16094C86.4485 7.88242 87.1255 7.74316 87.7774 7.74316H93.7947C94.4465 7.74316 95.1172 7.88242 95.8067 8.16094C96.4962 8.43946 97.1669 8.79393 97.8187 9.22437H97.7811C98.433 9.70544 98.9344 10.3321 99.2854 11.1044C99.6365 11.8766 99.812 12.7691 99.812 13.7819V14.1237C99.812 14.6555 99.6365 15.0416 99.2854 15.2821C98.9344 15.5227 98.4205 15.6556 97.7435 15.6809C96.3646 15.7062 95.6751 15.1872 95.6751 14.1237V13.8199C95.6751 13.1869 95.4808 12.6109 95.0921 12.0918C94.7035 11.5728 94.0454 11.3132 93.1177 11.3132H88.4543C87.5266 11.3132 86.8685 11.5728 86.4799 12.0918C86.0913 12.6109 85.897 13.1869 85.897 13.8199V14.7314C85.897 15.3897 86.0913 15.9847 86.4799 16.5165C86.8685 17.0482 87.5266 17.314 88.4543 17.314Z" fill="#00DD83"/>
</svg>
