<svg width="55" height="55" viewBox="0 0 55 55" fill="none" xmlns="http://www.w3.org/2000/svg">
<path fill-rule="evenodd" clip-rule="evenodd" d="M27.5 7.875C16.6614 7.875 7.875 16.6614 7.875 27.5C7.875 38.3386 16.6614 47.125 27.5 47.125C38.3386 47.125 47.125 38.3386 47.125 27.5C47.125 16.6614 38.3386 7.875 27.5 7.875ZM5.875 27.5C5.875 15.5568 15.5568 5.875 27.5 5.875C39.4432 5.875 49.125 15.5568 49.125 27.5C49.125 39.4432 39.4432 49.125 27.5 49.125C15.5568 49.125 5.875 39.4432 5.875 27.5Z" fill="#222222"/>
<path fill-rule="evenodd" clip-rule="evenodd" d="M26.5 35.375L26.5 19.625L28.5 19.625L28.5 35.375L26.5 35.375Z" fill="#222222"/>
<path fill-rule="evenodd" clip-rule="evenodd" d="M35.375 26.5L19.625 26.5L19.625 28.5L35.375 28.5L35.375 26.5Z" fill="#222222"/>
</svg>
